<?xml version="1.0" encoding="utf-8"?>
<!-- Generator: Adobe Illustrator 21.1.0, SVG Export Plug-In . SVG Version: 6.00 Build 0)  -->
<svg version="1.1" id="Layer_1" xmlns="http://www.w3.org/2000/svg" xmlns:xlink="http://www.w3.org/1999/xlink" x="0px" y="0px"
	 viewBox="0 0 340.2 170.1" style="enable-background:new 0 0 340.2 170.1;" xml:space="preserve">
<style type="text/css">
	.st0{fill:#02B4AC;}
	.st1{fill:#FFFFFF;}
	.st2{display:none;}
	.st3{display:inline;opacity:0.75;fill:#4285F4;enable-background:new    ;}
</style>
<rect class="st0" width="340.2" height="170.1"/>
<g id="Layer_1_1_">
	<path class="st1" d="M114.5,57.9v8.2h14.3v17.7c-1.9,1.1-4.2,1.9-7,2.5s-5.7,0.9-8.8,0.9c-1.8,0-3.5-0.2-5.1-0.5
		c-2.9-3.4-6.2-6.7-9.5-9.9c-3.3-3.1-6.5-6.1-9.7-8.9c-0.5-2-0.7-4.1-0.7-6.3c0-3.6,0.5-6.9,1.7-10c1.1-3.1,2.8-5.8,4.9-8.1
		s4.6-4.1,7.6-5.5c3-1.3,6.3-2,10-2c3.3,0,6.4,0.5,9.4,1.5s5.8,2.8,8.5,5.3l6.2-6.6c-2.6-2.6-5.7-4.6-9.5-6.1
		c-3.7-1.5-8.6-2.2-14.5-2.2c-4.9,0-9.4,0.9-13.5,2.6c-4.1,1.7-7.7,4.1-10.6,7.1c-2.9,3-5.2,6.6-6.9,10.7c-1.5,3.7-2.3,7.6-2.5,11.8
		c-8.6-6-15.9-8.4-21-4.2c-8.7,7.2,9.5,31.8,9.5,31.8s-0.6,6.1-11.8,11c-11.3,4.9-30.8,18.5-14.3,36.7c13.8,15.3,28.9,3.5,32.2-2.7
		c6.1-11.4,6.3-22,17.8-29.2c5-3.1-9.8-23.4-7.2-21.2c20.8,18.2,8.4,30.3,8.4,30.3s19.5,13.1,26.5,7.2c5.9-4.9,3-14.2-4-24.4
		c1.5-0.1,3-0.2,4.6-0.4c2.2-0.2,4.3-0.6,6.5-1.1c2.1-0.6,4.2-1.2,6.2-1.9c2-0.7,3.8-1.5,5.4-2.5V58v-0.1H114.5z"/>
	<path class="st1" d="M191.3,93.9h-8.2v-6.6h-0.2c-1,2.3-2.8,4.2-5.4,5.6c-2.5,1.4-5.5,2.1-8.8,2.1c-2.1,0-4.1-0.3-6-1
		c-1.9-0.6-3.5-1.6-5-3c-1.4-1.3-2.6-3-3.4-5.1s-1.3-4.6-1.3-7.4V50.9h8.2v25.5c0,2,0.3,3.7,0.8,5.1s1.3,2.6,2.2,3.5s2,1.5,3.1,1.9
		c1.2,0.4,2.4,0.6,3.7,0.6c1.7,0,3.3-0.3,4.7-0.8c1.5-0.5,2.7-1.4,3.8-2.6s1.9-2.7,2.5-4.5s0.9-4,0.9-6.5V50.9h8.2v43H191.3z"/>
	<path class="st1" d="M205.4,50.9h8.2v6.6h0.2c0.5-1.2,1.3-2.2,2.2-3.1s1.9-1.7,3-2.4s2.3-1.2,3.7-1.6c1.3-0.4,2.7-0.6,4-0.6
		s2.5,0.2,3.6,0.5l-0.4,8.8c-0.7-0.2-1.3-0.3-2-0.5c-0.7-0.1-1.3-0.2-2-0.2c-4,0-7.1,1.1-9.2,3.4c-2.1,2.2-3.2,5.7-3.2,10.5v21.6
		h-8.2L205.4,50.9L205.4,50.9z"/>
	<path class="st1" d="M282.4,93.6c0,3.3-0.6,6.3-1.7,9c-1.1,2.7-2.7,5-4.8,7s-4.5,3.5-7.5,4.6c-2.9,1.1-6.1,1.6-9.6,1.6
		c-4.1,0-7.9-0.6-11.3-1.7c-3.4-1.2-6.7-3.2-9.8-6l5.5-6.9c2.1,2.3,4.4,4,6.9,5.2s5.3,1.8,8.5,1.8c3,0,5.5-0.4,7.5-1.3
		s3.6-2,4.8-3.4c1.2-1.4,2-3,2.5-4.8s0.7-3.6,0.7-5.4v-6.4h-0.3c-1.6,2.6-3.7,4.5-6.4,5.8c-2.7,1.2-5.5,1.9-8.5,1.9
		c-3.2,0-6.1-0.6-8.8-1.7s-5-2.7-7-4.6c-1.9-2-3.5-4.3-4.5-7c-1.1-2.7-1.6-5.6-1.6-8.8c0-3.2,0.5-6.1,1.5-8.9c1-2.8,2.5-5.2,4.4-7.2
		c1.9-2.1,4.2-3.7,6.9-4.8c2.7-1.2,5.7-1.7,9-1.7c2.9,0,5.7,0.6,8.5,1.9c2.8,1.3,4.9,3.1,6.5,5.4h0.2V51h8.2v42.6
		C282.2,93.6,282.4,93.6,282.4,93.6z M260.1,57.4c-2.2,0-4.2,0.4-5.9,1.1c-1.8,0.8-3.2,1.8-4.5,3.1c-1.2,1.3-2.2,2.9-2.8,4.7
		c-0.7,1.8-1,3.9-1,6c0,4.4,1.3,7.9,3.8,10.5s6,4,10.4,4s7.8-1.3,10.4-4c2.5-2.6,3.8-6.1,3.8-10.5c0-2.2-0.3-4.2-1-6
		c-0.7-1.8-1.6-3.4-2.8-4.7c-1.2-1.3-2.7-2.3-4.5-3.1C264.2,57.8,262.2,57.4,260.1,57.4z"/>
	<path class="st1" d="M297.2,28.2h8.2v65.7h-8.2V28.2z"/>
	<g>
		<g>
			<path class="st1" d="M137.3,108.5h1.4v1.1l0,0c0.2-0.4,0.5-0.7,0.9-0.9c0.4-0.2,0.9-0.4,1.5-0.4c0.3,0,0.7,0.1,1,0.2
				s0.6,0.3,0.8,0.5c0.2,0.2,0.4,0.5,0.6,0.9c0.1,0.3,0.2,0.8,0.2,1.2v4.6h-1.4v-4.2c0-0.3,0-0.6-0.1-0.9c-0.1-0.2-0.2-0.4-0.4-0.6
				c-0.2-0.1-0.3-0.3-0.5-0.3c-0.2-0.1-0.4-0.1-0.6-0.1c-0.3,0-0.5,0-0.8,0.1c-0.2,0.1-0.5,0.2-0.6,0.4c-0.2,0.2-0.3,0.4-0.4,0.7
				c-0.1,0.3-0.2,0.7-0.2,1.1v3.7h-1.4V108.5z"/>
			<path class="st1" d="M147,112.6c0,0.3,0.1,0.6,0.2,0.9c0.1,0.3,0.3,0.5,0.5,0.7s0.5,0.3,0.8,0.4s0.6,0.2,0.9,0.2
				c0.4,0,0.8-0.1,1.1-0.3c0.3-0.2,0.6-0.5,0.9-0.8l1,0.8c-0.8,1-1.8,1.5-3.2,1.5c-0.6,0-1.1-0.1-1.5-0.3c-0.5-0.2-0.8-0.5-1.2-0.8
				c-0.3-0.3-0.6-0.7-0.7-1.2c-0.2-0.5-0.3-1-0.3-1.5s0.1-1,0.3-1.5s0.4-0.9,0.8-1.2c0.3-0.3,0.7-0.6,1.2-0.8
				c0.5-0.2,0.9-0.3,1.5-0.3c0.6,0,1.2,0.1,1.6,0.3c0.4,0.2,0.8,0.5,1.1,0.9c0.3,0.4,0.5,0.8,0.6,1.2c0.1,0.4,0.2,0.9,0.2,1.4v0.5
				L147,112.6L147,112.6z M151.3,111.5c0-0.3-0.1-0.6-0.1-0.8c-0.1-0.3-0.2-0.5-0.4-0.7s-0.4-0.3-0.6-0.4c-0.3-0.1-0.6-0.2-0.9-0.2
				s-0.6,0.1-0.9,0.2s-0.5,0.3-0.7,0.5s-0.3,0.4-0.4,0.7c-0.1,0.2-0.2,0.5-0.2,0.7C147.1,111.5,151.3,111.5,151.3,111.5z"/>
			<path class="st1" d="M153.9,108.5h1.5l1.6,5.4l0,0l1.7-5.4h1.5l1.8,5.4l0,0l1.5-5.4h1.5l-2.3,7.2h-1.4l-1.9-5.4l0,0l-1.7,5.4
				h-1.5L153.9,108.5z"/>
			<path class="st1" d="M170.5,114.4l4.1-4.8h-3.9v-1.1h5.6v1.2l-4.1,4.8h4.3v1.2h-6L170.5,114.4L170.5,114.4z"/>
			<path class="st1" d="M179.4,112.6c0,0.3,0.1,0.6,0.2,0.9c0.1,0.3,0.3,0.5,0.5,0.7s0.5,0.3,0.8,0.4s0.6,0.2,0.9,0.2
				c0.4,0,0.8-0.1,1.1-0.3s0.6-0.5,0.9-0.8l1,0.8c-0.8,1-1.8,1.5-3.2,1.5c-0.6,0-1.1-0.1-1.5-0.3c-0.5-0.2-0.8-0.5-1.2-0.8
				s-0.6-0.7-0.7-1.2c-0.2-0.5-0.3-1-0.3-1.5s0.1-1,0.3-1.5s0.4-0.9,0.8-1.2c0.3-0.3,0.7-0.6,1.2-0.8c0.5-0.2,0.9-0.3,1.5-0.3
				s1.2,0.1,1.6,0.3c0.4,0.2,0.8,0.5,1.1,0.9s0.5,0.8,0.6,1.2c0.1,0.4,0.2,0.9,0.2,1.4v0.5L179.4,112.6L179.4,112.6z M183.7,111.5
				c0-0.3-0.1-0.6-0.1-0.8c-0.1-0.3-0.2-0.5-0.4-0.7s-0.4-0.3-0.6-0.4c-0.3-0.1-0.6-0.2-0.9-0.2c-0.3,0-0.6,0.1-0.9,0.2
				c-0.3,0.1-0.5,0.3-0.7,0.5s-0.3,0.4-0.4,0.7c-0.1,0.2-0.2,0.5-0.2,0.7C179.5,111.5,183.7,111.5,183.7,111.5z"/>
			<path class="st1" d="M187.1,109.4c0.4-0.4,0.8-0.6,1.3-0.8c0.5-0.2,1-0.3,1.5-0.3s1,0.1,1.4,0.2s0.7,0.3,0.9,0.5s0.4,0.5,0.5,0.8
				s0.2,0.6,0.2,0.9v3.7c0,0.3,0,0.5,0,0.7s0,0.4,0,0.6h-1.2c0-0.4,0-0.7,0-1.1l0,0c-0.3,0.5-0.7,0.8-1.1,1
				c-0.4,0.2-0.9,0.3-1.4,0.3c-0.3,0-0.7,0-1-0.1s-0.6-0.2-0.8-0.4s-0.4-0.4-0.5-0.7s-0.2-0.6-0.2-0.9c0-0.5,0.1-0.9,0.3-1.2
				c0.2-0.3,0.5-0.6,0.8-0.8c0.4-0.2,0.8-0.3,1.3-0.4s1-0.1,1.5-0.1h1V111c0-0.2,0-0.4-0.1-0.5c-0.1-0.2-0.2-0.3-0.3-0.5
				c-0.1-0.1-0.3-0.3-0.5-0.3c-0.2-0.1-0.5-0.1-0.8-0.1s-0.5,0-0.7,0.1s-0.4,0.1-0.5,0.2c-0.2,0.1-0.3,0.2-0.4,0.3
				c-0.1,0.1-0.3,0.2-0.4,0.3L187.1,109.4z M191,112.2c-0.3,0-0.7,0-1,0.1c-0.3,0-0.6,0.1-0.9,0.2c-0.3,0.1-0.5,0.2-0.7,0.4
				c-0.2,0.2-0.3,0.4-0.3,0.7c0,0.4,0.1,0.7,0.4,0.9c0.3,0.2,0.7,0.3,1.1,0.3c0.4,0,0.7-0.1,1-0.2s0.5-0.3,0.6-0.5s0.3-0.4,0.3-0.7
				c0.1-0.2,0.1-0.5,0.1-0.7v-0.5C191.6,112.2,191,112.2,191,112.2z"/>
			<path class="st1" d="M195.4,104.2h1.4v11.5h-1.4V104.2z"/>
			<path class="st1" d="M199.2,109.4c0.4-0.4,0.8-0.6,1.3-0.8c0.5-0.2,1-0.3,1.5-0.3s1,0.1,1.4,0.2s0.7,0.3,0.9,0.5s0.4,0.5,0.5,0.8
				s0.2,0.6,0.2,0.9v3.7c0,0.3,0,0.5,0,0.7s0,0.4,0,0.6h-1.2c0-0.4,0-0.7,0-1.1l0,0c-0.3,0.5-0.7,0.8-1.1,1
				c-0.4,0.2-0.9,0.3-1.4,0.3c-0.3,0-0.7,0-1-0.1s-0.6-0.2-0.8-0.4s-0.4-0.4-0.5-0.7s-0.2-0.6-0.2-0.9c0-0.5,0.1-0.9,0.3-1.2
				c0.2-0.3,0.5-0.6,0.8-0.8c0.4-0.2,0.8-0.3,1.3-0.4s1-0.1,1.5-0.1h1V111c0-0.2,0-0.4-0.1-0.5c-0.1-0.2-0.2-0.3-0.3-0.5
				c-0.1-0.1-0.3-0.3-0.5-0.3c-0.2-0.1-0.5-0.1-0.8-0.1s-0.5,0-0.7,0.1s-0.4,0.1-0.5,0.2c-0.2,0.1-0.3,0.2-0.4,0.3
				c-0.1,0.1-0.3,0.2-0.4,0.3L199.2,109.4z M203.1,112.2c-0.3,0-0.7,0-1,0.1c-0.3,0-0.6,0.1-0.9,0.2c-0.3,0.1-0.5,0.2-0.7,0.4
				c-0.2,0.2-0.3,0.4-0.3,0.7c0,0.4,0.1,0.7,0.4,0.9c0.3,0.2,0.7,0.3,1.1,0.3c0.4,0,0.7-0.1,1-0.2s0.5-0.3,0.6-0.5s0.3-0.4,0.3-0.7
				c0.1-0.2,0.1-0.5,0.1-0.7v-0.5C203.7,112.2,203.1,112.2,203.1,112.2z"/>
			<path class="st1" d="M207.4,108.5h1.4v1.1l0,0c0.2-0.4,0.5-0.7,0.9-0.9c0.4-0.2,0.9-0.4,1.5-0.4c0.3,0,0.7,0.1,1,0.2
				s0.6,0.3,0.8,0.5s0.4,0.5,0.6,0.9c0.1,0.3,0.2,0.8,0.2,1.2v4.6h-1.4v-4.2c0-0.3,0-0.6-0.1-0.9c-0.1-0.2-0.2-0.4-0.4-0.6
				c-0.2-0.1-0.3-0.3-0.5-0.3c-0.2-0.1-0.4-0.1-0.6-0.1c-0.3,0-0.5,0-0.8,0.1c-0.2,0.1-0.5,0.2-0.6,0.4c-0.2,0.2-0.3,0.4-0.4,0.7
				c-0.1,0.3-0.2,0.7-0.2,1.1v3.7h-1.4V108.5z"/>
			<path class="st1" d="M223.3,115.7h-1.4v-1l0,0c-0.3,0.4-0.6,0.7-1.1,0.9s-0.9,0.3-1.4,0.3c-0.6,0-1.1-0.1-1.5-0.3
				s-0.8-0.5-1.2-0.8c-0.3-0.3-0.6-0.7-0.7-1.2c-0.2-0.5-0.3-0.9-0.3-1.5c0-0.5,0.1-1,0.3-1.5s0.4-0.9,0.7-1.2
				c0.3-0.3,0.7-0.6,1.2-0.8c0.4-0.2,1-0.3,1.5-0.3s1,0.1,1.5,0.3c0.5,0.2,0.8,0.5,1,0.9l0,0v-5.3h1.4V115.7z M219.6,114.6
				c0.4,0,0.7-0.1,1-0.2s0.5-0.3,0.7-0.5s0.4-0.5,0.5-0.8s0.2-0.6,0.2-1s-0.1-0.7-0.2-1c-0.1-0.3-0.3-0.6-0.5-0.8
				c-0.2-0.2-0.4-0.4-0.7-0.5s-0.6-0.2-1-0.2s-0.7,0.1-1,0.2s-0.5,0.3-0.7,0.5s-0.4,0.5-0.5,0.8s-0.2,0.6-0.2,1s0.1,0.7,0.2,1
				c0.1,0.3,0.3,0.6,0.5,0.8s0.4,0.4,0.7,0.5S219.2,114.6,219.6,114.6z"/>
		</g>
	</g>
</g>
<g id="Layer_2" class="st2">
	<path class="st3" d="M136.5,60.5v31.7c-1.6,1-3.4,1.8-5.4,2.5s-4.1,1.3-6.2,1.9c-2.2,0.5-4.3,0.9-6.5,1.1s-4.3,0.4-6.2,0.4
		c-5.5,0-10.3-0.9-14.6-2.7c-4.3-1.8-7.9-4.3-10.8-7.4s-5.2-6.7-6.7-10.8s-2.3-8.4-2.3-13c0-4.8,0.8-9.2,2.5-13.4
		c1.7-4.1,4-7.7,6.9-10.7s6.5-5.4,10.6-7.1c4.1-1.7,8.6-2.6,13.5-2.6c5.9,0,10.8,0.7,14.5,2.2c3.8,1.5,6.9,3.5,9.5,6.1l-6.2,6.6
		c-2.7-2.5-5.5-4.3-8.5-5.3s-6.1-1.5-9.4-1.5c-3.7,0-7,0.7-10,2c-3,1.4-5.5,3.2-7.6,5.5s-3.8,5-4.9,8.1c-1.2,3.1-1.7,6.4-1.7,10
		c0,3.6,0.6,7,1.9,10.1s3,5.8,5.3,8.1c2.2,2.3,4.9,4.1,7.9,5.4s6.3,2,9.9,2c3.1,0,6-0.3,8.8-0.9s5.1-1.4,7-2.5V68.6h-14.3v-8.2
		L136.5,60.5L136.5,60.5z"/>
</g>
</svg>
