<?xml version="1.0" encoding="utf-8"?>
<!-- Generator: Adobe Illustrator 21.1.0, SVG Export Plug-In . SVG Version: 6.00 Build 0)  -->
<svg version="1.1" id="Capa_1" xmlns="http://www.w3.org/2000/svg" xmlns:xlink="http://www.w3.org/1999/xlink" x="0px" y="0px"
	 viewBox="0 0 20 20" style="enable-background:new 0 0 20 20;" xml:space="preserve">
<style type="text/css">
	.st0{fill:#89CCB2;}
</style>
<g>
	<path class="st0" d="M19.9,6c-0.3-3.2-2.6-5.6-5.5-5.6c-1.8,0-3.4,0.9-4.4,2.3c-1-1.5-2.6-2.3-4.3-2.3C2.7,0.5,0.4,2.8,0.1,6
		c0,0.1-0.1,0.9,0.2,2.1c0.4,1.7,1.4,3.3,2.7,4.6l6.7,6.1c0,0,0.1,0.1,0.2,0.1c0.1,0,0.1,0,0.2-0.1l6.8-6.1c1.4-1.3,2.3-2.8,2.7-4.6
		C20,6.9,19.9,6.2,19.9,6z M9.9,17.3l-6.1-5.5c-1.2-1.1-2-2.4-2.4-3.9c-0.2-1-0.2-1.6-0.1-1.7c0.2-2.6,2-4.5,4.2-4.5
		c1.6,0,3.1,1,3.8,2.6l0.3,0.8c0.1,0.2,0.4,0.2,0.5,0l0.3-0.8c0.7-1.6,2.2-2.6,3.9-2.6c2.2,0,4,1.9,4.2,4.5c0,0.1,0.1,0.7-0.2,1.6
		c0,0,0,0,0,0c-0.4,1.5-1.2,2.9-2.4,3.9L9.9,17.3z"/>
	<path class="st0" d="M6.3,2.7c-2.2,0-4,1.8-4,4C2.3,7,2.6,7.3,3,7.3S3.6,7,3.6,6.7c0-1.5,1.2-2.7,2.7-2.7c0.3,0,0.6-0.3,0.6-0.6
		S6.6,2.7,6.3,2.7z"/>
</g>
</svg>
