<?xml version="1.0" encoding="utf-8"?>
<!-- Generator: Adobe Illustrator 21.1.0, SVG Export Plug-In . SVG Version: 6.00 Build 0)  -->
<svg version="1.1" xmlns="http://www.w3.org/2000/svg" xmlns:xlink="http://www.w3.org/1999/xlink" x="0px" y="0px"
	 viewBox="0 0 3000 3000" style="enable-background:new 0 0 3000 3000;" xml:space="preserve">
<style type="text/css">
	.st0{fill:#FFFFFF;}
	.st1{fill:#B5B5B6;}
	.st2{font-family:'MicrosoftSansSerif';}
	.st3{font-size:300px;}
</style>
<g id="Layer_1">
	<rect y="-500" class="st0" width="3000" height="4000"/>
</g>
<g id="Layer_2">
	<g>
		<g>
			<path class="st1" d="M1496.7,615.8h-31.5c0-18.5-1.5-49.2-4.2-86.5l0-0.5c-1.1-27,2.5-43.3,12.4-56.3
				c9.5-12.5,23.1-19.3,41.8-28.8c4.1-2.1,8.4-4.2,13-6.6c58.8-31,60.8-56.5,60.8-171.9c0-107.3-30.7-149.2-109.4-149.2
				c-0.1,0-0.1,0-0.2,0c-38.9,0-65.5,7.7-81.3,23.4c-21.7,21.8-21.5,59.1-21.2,95.2c0,4,0.1,7.9,0.1,11.9h-31.5
				c0-3.8,0-7.7-0.1-11.6c-0.3-40.5-0.6-86.4,30.4-117.4c22-22,55.9-32.7,103.6-32.7c0.1,0,0.1,0,0.2,0
				c124.9,0.1,140.9,96.5,140.9,180.5c0,60.1-0.5,98.4-10.2,128.2c-10,30.7-29.5,51.3-67.4,71.4c-4.9,2.5-9.5,4.8-13.5,6.9
				c-33.2,16.7-38.4,19.3-37,55.7C1494.4,554.2,1496.7,591.3,1496.7,615.8z"/>
			<g>
				<g>
					<path class="st1" d="M2571,1189.8c-10.6-41.7-51.8-81.8-125.9-122.6c-58.3-32.1-127.8-59.7-178.6-79.8
						c-12-4.8-23.3-9.2-33.3-13.3c-77.5-31.6-178.7-74-273.5-121.3c-159.9-79.7-199.2-122.9-208.4-141.5l-0.2-0.3l-0.2-0.3
						c-3.7-7.1-7.3-14.4-10.7-21.4c-19.5-40.3-41.5-85.9-107.3-90.6c-28.7-2-78.8-3.3-134.2-3.3s-105.5,1.2-134.2,3.3
						c-65.8,4.7-87.8,50.3-107.3,90.6c-3.4,7-6.9,14.3-10.7,21.4l-0.2,0.3l-0.2,0.3c-9.2,18.6-48.4,61.8-208.4,141.5
						c-94.9,47.3-196,89.6-273.5,121.3c-9.9,4.1-21.3,8.6-33.3,13.3c-50.8,20.1-120.3,47.7-178.6,79.8
						c-74.1,40.8-115.3,80.9-125.8,122.6c-5.2,20.5-5.4,52.1,23.1,86l0.4,0.5l0.5,0.5c25.9,27.7,68.7,30.9,98.7,30.9
						c12.1,0,24.2-0.6,34.8-1.1c5.2-0.2,10.1-0.5,14.7-0.6c31.4-1.1,151.8-1.6,367.9-1.6c229.9,0,530.8,0.6,796.4,1.1
						c217.4,0.4,405.2,0.8,522.9,0.8c61.7,0,99-0.1,113.9-0.3c1.2,0,2.4,0,3.6,0c6.2,0,13.1,0.2,20.3,0.4c8.2,0.2,16.6,0.5,25.3,0.5
						c34.5,0,73-3.6,97.8-30.1l0.5-0.5l0.4-0.5C2576.5,1241.9,2576.2,1210.3,2571,1189.8z M2527.8,1259.1
						c-27.3,29.2-88.1,20.3-128.1,20.9c-119.7,1.7-1673.5-4.3-1801.5,0c-39.9,1.3-100.8,8.3-128.1-20.9
						c-96.6-114.8,186.8-212.9,304.4-260.9c117.6-48,451.4-185.8,495.5-275.5c25.2-48,36.6-93.8,96.6-98.1
						c59.8-4.3,204.7-4.3,264.6,0c60,4.3,71.4,50.1,96.6,98.1c44.1,89.7,377.9,227.5,495.5,275.5
						C2341,1046.2,2624.4,1144.3,2527.8,1259.1z"/>
				</g>
			</g>
			<g>
				<path class="st1" d="M1601.9,603.2h-205.8c-72.4,0-131.2,47.9-131.2,106.8v18c0,58.9,58.9,106.8,131.2,106.8h205.8
					c72.4,0,131.2-47.9,131.2-106.8v-18C1733.1,651.1,1674.2,603.2,1601.9,603.2z M1706.9,728c0,47.2-47,85.5-105,85.5h-205.8
					c-58,0-105-38.3-105-85.5v-18c0-47.2,47-85.5,105-85.5h205.8c58,0,105,38.3,105,85.5V728z"/>
			</g>
		</g>
		<g>
			<path class="st1" d="M63.8,1334.6c95.3,284.2,230,335.6,251,515.1c124.7-23.6,218.4-110.6,344.3-154.4c0.8,23.2,2.6,63.8,5,117.2
				v-789.7C477.1,1109,273.8,1221.9,63.8,1334.6z"/>
			<path class="st1" d="M2336.5,1024v728.9c1.1-24.5,1.9-44,2.3-57.6c125.9,43.8,219.6,130.9,344.3,154.4
				c21-179.5,155.7-230.9,251-515.1C2725.2,1222.5,2522.8,1110,2336.5,1024z"/>
			<g>
				<path class="st1" d="M664.1,1812.4v1111.3h13.3V1847.9v-831.3c-4.4,2-8.8,4-13.3,6.1V1812.4z"/>
				<path class="st1" d="M699.9,1847.9v1075.7h13.2V1847.9v-847.3c-4.4,1.9-8.8,3.9-13.2,5.9V1847.9z"/>
				<path class="st1" d="M770,1847.9v1075.7h13.2V1847.9V970.8c-4.4,1.8-8.8,3.6-13.2,5.4V1847.9z"/>
				<path class="st1" d="M805.7,1847.9v1075.7h31.8V1847.9V949.5c-10.5,4-21.1,8.1-31.8,12.3V1847.9z"/>
				<path class="st1" d="M858.6,1847.9v1075.7h31.8V1847.9V930.4c-10.5,3.6-21.1,7.4-31.8,11.2V1847.9z"/>
				<path class="st1" d="M930.1,917.3v930.6v1075.7h30.4V1847.9V912.7c-1-1.3-1.9-2.5-2.7-3.8C948.6,911.6,939.4,914.4,930.1,917.3z
					"/>
				<path class="st1" d="M1000.2,1847.9v1075.7h13.3V1847.9V955.8c-4.6-2.8-9.1-5.7-13.3-8.5V1847.9z"/>
				<path class="st1" d="M1053.1,1847.9v1075.7h30.4V1847.9V991.8c-10.7-4.7-20.8-9.4-30.4-14.2V1847.9z"/>
				<path class="st1" d="M1106.1,1847.9v1075.7h66.1V1847.9v-822.5c-23.4-7.7-45.5-15.8-66.1-24.2V1847.9z"/>
				<path class="st1" d="M1194.7,1847.9v1075.7h13.2V1847.9v-811.4c-4.4-1.3-8.8-2.6-13.2-4V1847.9z"/>
				<path class="st1" d="M1246.3,1847.9v1075.7h49V1847.9v-789.3c-16.6-3.6-33-7.4-49-11.6V1847.9z"/>
				<path class="st1" d="M1317.8,1847.9v1075.7h13.2V1847.9v-782.2c-4.4-0.8-8.8-1.6-13.2-2.5V1847.9z"/>
				<path class="st1" d="M1366.5,1071.8v776.2v1075.7H1591V1847.9v-766.4c-21.9,1.7-44.1,2.6-66.4,2.7
					C1472,1084.3,1418.6,1079.7,1366.5,1071.8z"/>
				<path class="st1" d="M1697.2,1847.9v1075.7h19.7V1847.9v-784.7c-6.5,1.4-13.1,2.7-19.7,4V1847.9z"/>
				<path class="st1" d="M1741.1,1847.9v1075.7h13.2V1847.9v-793.5c-4.4,1.1-8.8,2.2-13.2,3.3V1847.9z"/>
				<path class="st1" d="M1794.1,1847.9v1075.7h13.3V1847.9v-808.5c-4.4,1.4-8.8,2.7-13.3,4.1V1847.9z"/>
				<path class="st1" d="M1847,1847.9v1075.7h13.2V1847.9v-827c-4.4,1.7-8.8,3.3-13.2,5V1847.9z"/>
				<path class="st1" d="M1917.1,1847.9v1075.7h49V1847.9V970.6c-14.7,8.8-31.1,17.5-49,26V1847.9z"/>
				<path class="st1" d="M1988.7,1847.9v1075.7h22V1847.9V939.8c-6.6,5.4-13.9,10.9-22,16.4V1847.9z"/>
				<path class="st1" d="M2040.2,909v938.9v1075.7h31.8V1847.9V918.6c-10.6-3.4-21.2-6.6-31.7-9.6C2040.2,909,2040.2,909,2040.2,909
					z"/>
				<path class="st1" d="M2111.9,1847.9v1075.7h17.1V1847.9V937.9c-5.7-2.1-11.4-4.1-17.1-6V1847.9z"/>
				<path class="st1" d="M2164.5,1847.9v1075.7h30.5V1847.9V962.8c-10.2-4.1-20.4-8-30.5-11.9V1847.9z"/>
				<path class="st1" d="M2216.2,1847.9v1075.7h43.2V1847.9V989.6c-14.5-6.2-28.9-12.3-43.2-18.2V1847.9z"/>
				<path class="st1" d="M2287.5,1847.9v1075.7h13.3V1847.9v-840.2c-4.4-2-8.8-4-13.3-5.9V1847.9z"/>
				<path class="st1" d="M2323.3,1017.9v830.1v1075.7h13.2V1752.9V1024C2332.1,1021.9,2327.7,1019.9,2323.3,1017.9z"/>
				<path class="st1" d="M1620.7,1847.9v1075.7h49V1847.9v-775.9c-16.1,2.6-32.4,4.9-49,6.7V1847.9z"/>
				<path class="st1" d="M1878.6,1847.9v1075.7h13.2V1847.9v-839.9c-4.3,1.9-8.7,3.7-13.2,5.6V1847.9z"/>
				<path class="st1" d="M733.6,1847.9v1075.7h13.2V1847.9V986c-4.4,1.9-8.8,3.8-13.2,5.7V1847.9z"/>
			</g>
		</g>
	</g>
	
		<rect x="1405.7" y="-425.7" transform="matrix(0.7071 -0.7071 0.7071 0.7071 -643.3101 1503.5864)" class="st1" width="175.2" height="3908.1"/>
	<text transform="matrix(1 0 0 1 346.9194 1269)"><tspan x="0" y="0" class="st2 st3">SAMPLE IMAGE</tspan><tspan x="-51.7" y="360" class="st2 st3">REPRESENTING</tspan><tspan x="300.1" y="720" class="st2 st3">BACK VIEW</tspan></text>
</g>
</svg>
